<?xml version="1.0" standalone="no"?>
<!DOCTYPE svg PUBLIC "-//W3C//DTD SVG 20010904//EN"
 "http://www.w3.org/TR/2001/REC-SVG-20010904/DTD/svg10.dtd">
<svg version="1.0" xmlns="http://www.w3.org/2000/svg"
 width="1024.000000pt" height="1024.000000pt" viewBox="0 0 1024.000000 1024.000000"
 preserveAspectRatio="xMidYMid meet">
    <g transform="translate(0.000000,1024.000000) scale(0.100000,-0.100000)"
    fill="#000000" stroke="none">
        <path d="M5608 8216 c-184 -66 -377 -215 -689 -532 -377 -385 -648 -760 -938
        -1301 -204 -380 -375 -806 -533 -1328 l-15 -50 -46 142 c-84 258 -125 499
        -134 778 -7 241 10 401 73 710 40 193 48 249 48 345 1 100 -2 122 -23 168 -45
        100 -149 163 -243 148 -257 -41 -426 -363 -499 -951 -7 -56 -13 -213 -13 -360
        0 -223 3 -281 22 -405 110 -690 317 -1212 804 -2024 375 -625 639 -950 966
        -1193 375 -279 843 -418 1337 -399 640 25 1164 253 1580 687 243 255 398 551
        477 910 20 92 22 133 23 349 0 277 -8 339 -74 539 -209 633 -768 1153 -1426
        1324 -178 47 -286 60 -492 61 -106 1 -193 3 -193 6 1 12 214 138 315 186 256
        123 501 176 810 176 186 0 322 -16 495 -59 82 -21 131 -27 225 -27 140 -1 181
        13 261 86 66 60 94 124 94 214 0 214 -204 364 -599 441 -126 25 -156 27 -411
        27 -309 1 -413 -10 -646 -69 -330 -84 -655 -246 -964 -480 -117 -89 -423 -336
        -637 -517 -84 -70 -153 -126 -153 -124 0 9 112 261 148 332 140 279 342 572
        597 869 66 77 268 291 450 475 362 367 384 396 407 531 21 125 -28 243 -126
        304 -43 26 -60 30 -130 33 -65 2 -94 -2 -148 -22z m232 -2981 c212 -32 438
        -125 601 -249 259 -196 459 -510 523 -820 101 -492 -43 -962 -396 -1291 -444
        -413 -1097 -499 -1627 -214 -132 71 -214 132 -316 234 -199 198 -336 455 -392
        735 -25 119 -24 384 1 500 43 203 129 403 243 562 75 106 209 239 306 306 162
        112 400 205 602 236 120 19 338 19 455 1z"/>
        <path d="M6239 4617 c-14 -8 -122 -97 -240 -198 -118 -101 -222 -190 -230
        -197 -13 -10 -25 -9 -60 3 -66 24 -191 21 -260 -4 -101 -38 -170 -106 -221
        -216 -19 -41 -23 -67 -23 -145 0 -84 3 -103 29 -157 35 -76 113 -153 193 -191
        52 -24 70 -27 163 -27 93 0 112 3 162 27 79 37 142 98 181 177 30 62 32 71 30
        166 0 55 -3 109 -5 121 -2 16 26 45 132 134 242 202 331 283 346 311 29 57 13
        128 -40 178 -32 30 -117 40 -157 18z"/>
    </g>
</svg>
